<?xml version="1.0" encoding="UTF-8" ?>
<!DOCTYPE svg PUBLIC "-//W3C//DTD SVG 1.1//EN" "http://www.w3.org/Graphics/SVG/1.1/DTD/svg11.dtd">
<svg width="277pt" height="284pt" viewBox="0 0 277 284" version="1.1" xmlns="http://www.w3.org/2000/svg">
<path fill="#ffffff" d=" M 0.00 0.00 L 277.00 0.00 L 277.00 284.00 L 0.00 284.00 L 0.00 0.00 Z" />
<path fill="#f7931b" d=" M 119.27 13.16 C 128.45 11.71 137.81 12.15 147.07 12.34 C 177.37 14.64 206.74 28.16 227.99 49.91 C 239.69 61.59 248.88 75.66 255.29 90.87 C 256.71 94.48 258.28 98.09 258.92 101.95 C 255.00 101.99 251.09 101.93 247.17 101.82 C 247.38 105.72 247.25 109.63 246.88 113.52 C 243.18 113.81 237.43 115.73 238.77 120.51 C 237.93 120.25 237.09 120.00 236.26 119.76 C 234.22 117.33 231.99 115.02 229.22 113.41 C 229.41 112.39 229.59 111.37 229.78 110.35 C 229.08 111.29 228.40 112.25 227.72 113.21 C 226.59 112.20 225.47 111.18 224.38 110.14 C 220.63 109.90 215.71 109.45 213.23 112.85 C 213.41 115.75 214.35 118.56 214.32 121.48 C 215.29 121.91 216.27 122.34 217.24 122.78 C 217.09 137.85 217.56 152.90 217.12 167.97 C 214.00 172.09 216.09 177.60 217.93 181.85 C 221.55 180.80 225.43 181.25 228.98 179.97 C 232.04 178.57 235.00 175.64 234.75 172.02 C 234.78 167.79 234.99 163.54 234.62 159.33 C 233.81 158.10 232.15 157.98 230.91 157.39 C 232.24 156.83 234.84 156.90 234.73 154.86 C 234.90 148.15 234.73 141.43 234.73 134.72 C 237.86 132.95 241.21 130.81 241.71 126.90 C 243.41 126.84 245.12 126.78 246.83 126.70 C 247.82 131.80 246.45 136.91 246.84 142.02 C 247.82 151.05 246.95 160.13 246.93 169.18 C 246.55 173.08 247.18 177.24 249.57 180.44 C 251.34 182.79 254.19 183.91 256.88 184.85 C 241.75 227.11 202.38 259.30 158.12 266.31 C 137.77 269.49 116.59 268.15 96.99 261.65 C 60.69 249.97 30.14 221.01 17.34 185.01 C 19.69 185.08 22.03 184.96 24.38 184.87 C 23.99 181.27 23.42 177.63 24.22 174.04 C 23.43 173.04 22.64 172.05 21.85 171.06 C 21.75 165.77 21.44 160.49 21.78 155.21 C 24.42 157.46 27.92 160.04 27.59 163.95 C 26.81 170.98 24.96 177.95 25.45 185.09 C 32.89 184.79 41.11 182.18 44.75 175.12 C 45.36 175.68 45.98 176.24 46.59 176.81 C 46.04 179.32 45.75 182.25 47.80 184.20 C 50.62 187.64 55.41 186.95 59.34 186.72 C 60.11 185.49 60.89 184.27 61.68 183.05 C 63.76 183.60 65.88 183.96 68.02 184.25 C 69.30 182.40 69.92 180.23 69.68 177.98 C 69.24 166.00 70.12 153.99 69.24 142.03 C 69.90 129.73 69.42 117.39 69.66 105.08 C 70.55 99.35 70.76 93.53 70.14 87.75 C 69.28 88.76 68.42 89.78 67.58 90.81 C 67.94 91.34 68.66 92.42 69.02 92.95 C 67.35 93.35 65.67 93.75 63.98 94.13 C 63.79 93.30 63.39 91.64 63.20 90.81 C 62.80 91.52 62.41 92.23 62.02 92.94 C 59.98 92.65 57.59 91.31 55.71 92.75 C 51.87 95.58 49.78 100.25 48.85 104.81 C 49.30 113.26 48.44 121.71 48.54 130.16 C 50.38 129.63 52.16 128.94 53.90 128.16 C 54.20 129.38 54.50 130.60 54.81 131.82 C 54.14 131.88 52.79 132.00 52.12 132.06 C 50.39 134.48 48.28 137.23 48.77 140.39 C 49.19 143.42 49.50 146.46 49.44 149.51 C 50.04 149.85 51.24 150.51 51.83 150.85 C 50.80 151.51 49.80 152.22 48.84 152.99 C 48.01 154.30 49.13 155.79 49.38 157.10 C 48.64 160.75 46.72 163.94 44.52 166.88 C 44.66 164.94 44.73 163.00 44.70 161.05 C 44.79 157.86 44.82 154.29 42.79 151.63 C 38.87 147.20 33.65 144.25 28.77 141.01 C 33.19 140.88 37.62 140.84 42.04 141.00 C 44.75 138.55 44.12 134.78 44.06 131.52 C 42.55 130.97 41.04 130.40 39.58 129.71 C 41.03 129.38 42.48 129.08 43.94 128.78 C 43.73 123.48 42.27 117.61 37.98 114.13 C 34.26 110.93 29.07 113.08 24.79 111.33 C 22.33 116.01 23.71 121.54 25.92 126.03 C 26.88 130.80 26.29 135.73 26.35 140.57 C 23.45 138.92 21.66 135.96 21.49 132.63 C 21.06 125.66 21.90 118.69 21.78 111.72 C 18.29 111.90 14.80 112.42 11.57 113.78 C 16.89 89.14 29.29 65.93 47.52 48.43 C 66.83 29.40 92.41 16.84 119.27 13.16 Z" />
<path fill="#ffffff" d=" M 131.60 57.07 C 136.20 57.32 140.58 58.77 144.99 59.99 C 144.89 67.92 141.25 75.22 140.45 83.04 C 144.26 83.78 148.12 85.06 152.04 84.42 C 152.77 77.01 155.59 70.01 156.82 62.69 C 161.36 64.15 166.14 64.79 170.66 66.28 C 169.74 74.11 167.01 81.63 165.36 89.33 C 176.22 93.42 188.87 98.85 192.77 110.83 C 197.84 110.64 202.91 110.50 207.97 110.70 C 207.65 110.72 207.00 110.75 206.68 110.77 C 202.60 110.92 198.51 110.85 194.43 110.92 C 194.62 114.66 194.49 118.40 194.07 122.11 C 194.23 123.27 194.42 124.42 194.52 125.59 C 194.11 125.42 193.28 125.07 192.87 124.90 C 192.18 127.38 191.49 129.90 190.13 132.11 C 188.37 135.16 185.40 137.40 184.18 140.78 C 185.88 132.27 187.74 123.79 189.77 115.36 C 188.61 114.70 187.46 113.86 186.06 114.00 C 181.75 113.90 177.44 113.98 173.14 114.14 C 169.65 125.17 168.44 136.74 166.82 148.14 C 165.81 161.18 160.08 173.16 156.93 185.72 C 153.81 187.58 149.92 186.21 146.88 188.15 L 146.51 188.34 C 146.55 190.85 146.46 193.36 146.37 195.87 C 143.82 195.86 141.28 195.78 138.74 195.62 C 137.06 203.32 134.98 210.93 133.21 218.61 C 128.45 217.87 123.87 216.35 119.17 215.35 C 120.56 207.64 122.77 200.09 124.70 192.50 C 121.10 191.19 117.38 190.30 113.67 189.44 C 111.62 197.03 109.63 204.66 108.02 212.37 C 103.32 211.80 98.91 209.93 94.23 209.28 C 94.74 201.23 98.25 193.70 99.05 185.66 C 94.26 184.08 89.31 183.09 84.46 181.75 C 88.75 179.55 92.94 176.05 93.91 171.09 C 94.88 168.47 93.00 165.75 94.10 163.17 C 96.64 158.64 95.61 153.17 95.42 148.24 C 95.73 149.23 96.34 151.22 96.64 152.21 C 100.35 147.22 97.70 140.67 98.93 134.98 C 98.73 144.64 98.55 154.29 98.33 163.95 C 100.19 164.02 102.05 164.12 103.91 164.26 C 102.27 165.88 100.32 167.13 98.33 168.28 C 98.08 173.49 98.10 178.70 98.12 183.92 C 104.12 182.96 110.25 185.10 116.23 183.42 C 116.41 165.92 116.73 148.42 117.18 130.93 C 116.94 127.51 119.09 124.46 118.79 121.05 C 118.55 118.45 118.37 115.61 116.79 113.42 C 115.48 113.12 114.16 112.88 112.82 112.71 C 111.89 114.91 111.17 117.20 110.55 119.52 C 111.41 119.89 113.12 120.63 113.97 121.00 C 111.90 121.07 109.78 121.06 107.86 120.19 C 107.75 117.52 106.97 114.95 106.60 112.32 C 108.22 106.64 111.32 100.75 110.16 94.73 C 107.01 89.31 99.76 89.25 94.30 88.06 C 94.48 82.92 96.42 78.05 97.53 73.08 C 107.16 74.09 116.21 78.04 125.83 79.18 C 128.10 71.90 129.44 64.38 131.60 57.07 Z" />
<path fill="#010101" d=" M 67.58 90.81 C 68.42 89.78 69.28 88.76 70.14 87.75 C 70.76 93.53 70.55 99.35 69.66 105.08 C 69.42 117.39 69.90 129.73 69.24 142.03 C 70.12 153.99 69.24 166.00 69.68 177.98 C 69.92 180.23 69.30 182.40 68.02 184.25 C 65.88 183.96 63.76 183.60 61.68 183.05 C 60.89 184.27 60.11 185.49 59.34 186.72 C 55.41 186.95 50.62 187.64 47.80 184.20 C 45.75 182.25 46.04 179.32 46.59 176.81 C 45.98 176.24 45.36 175.68 44.75 175.12 C 41.11 182.18 32.89 184.79 25.45 185.09 C 24.96 177.95 26.81 170.98 27.59 163.95 C 27.92 160.04 24.42 157.46 21.78 155.21 C 21.44 160.49 21.75 165.77 21.85 171.06 C 22.64 172.05 23.43 173.04 24.22 174.04 C 23.42 177.63 23.99 181.27 24.38 184.87 C 22.03 184.96 19.69 185.08 17.34 185.01 C 16.88 184.98 15.98 184.93 15.52 184.90 C 14.53 184.35 13.48 183.98 12.36 183.78 C 6.73 181.26 2.87 175.24 3.25 169.04 C 3.47 164.81 2.88 160.55 3.27 156.34 C 4.19 154.92 6.01 155.09 7.45 154.69 C 8.14 154.52 9.51 154.18 10.20 154.01 C 11.69 154.22 13.19 154.43 14.68 154.62 C 16.93 154.89 19.20 154.99 21.46 155.00 C 17.78 152.09 13.68 149.77 9.49 147.67 C 3.98 145.43 3.78 138.52 3.61 133.47 C 2.70 132.97 1.86 132.39 1.08 131.73 C 0.89 127.26 0.79 122.75 1.12 118.28 C 2.39 116.33 4.44 115.14 6.33 113.88 C 6.96 114.35 8.22 115.29 8.85 115.75 C 9.53 115.26 10.89 114.27 11.57 113.78 C 14.80 112.42 18.29 111.90 21.78 111.72 C 21.90 118.69 21.06 125.66 21.49 132.63 C 21.66 135.96 23.45 138.92 26.35 140.57 C 26.29 135.73 26.88 130.80 25.92 126.03 C 23.71 121.54 22.33 116.01 24.79 111.33 C 29.07 113.08 34.26 110.93 37.98 114.13 C 42.27 117.61 43.73 123.48 43.94 128.78 C 42.48 129.08 41.03 129.38 39.58 129.71 C 41.04 130.40 42.55 130.97 44.06 131.52 C 44.12 134.78 44.75 138.55 42.04 141.00 C 37.62 140.84 33.19 140.88 28.77 141.01 C 33.65 144.25 38.87 147.20 42.79 151.63 C 44.82 154.29 44.79 157.86 44.70 161.05 C 44.73 163.00 44.66 164.94 44.52 166.88 C 46.72 163.94 48.64 160.75 49.38 157.10 C 49.13 155.79 48.01 154.30 48.84 152.99 C 49.80 152.22 50.80 151.51 51.83 150.85 C 51.24 150.51 50.04 149.85 49.44 149.51 C 49.50 146.46 49.19 143.42 48.77 140.39 C 48.28 137.23 50.39 134.48 52.12 132.06 C 52.79 132.00 54.14 131.88 54.81 131.82 C 54.50 130.60 54.20 129.38 53.90 128.16 C 52.16 128.94 50.38 129.63 48.54 130.16 C 48.44 121.71 49.30 113.26 48.85 104.81 C 49.78 100.25 51.87 95.58 55.71 92.75 C 57.59 91.31 59.98 92.65 62.02 92.94 C 62.41 92.23 62.80 91.52 63.20 90.81 C 63.39 91.64 63.79 93.30 63.98 94.13 C 65.67 93.75 67.35 93.35 69.02 92.95 C 68.66 92.42 67.94 91.34 67.58 90.81 Z" />
<path fill="#010101" d=" M 74.21 88.35 C 74.82 88.28 76.03 88.14 76.64 88.07 C 76.62 88.88 76.58 90.51 76.56 91.33 C 80.21 89.75 84.29 90.15 88.06 88.97 C 93.12 89.57 95.83 95.27 93.76 99.76 C 94.96 106.79 94.19 113.95 94.49 121.05 C 93.46 121.85 92.52 123.06 91.05 122.88 C 86.38 123.08 81.69 122.79 77.02 122.95 C 76.42 122.24 75.85 121.51 75.33 120.75 C 74.69 115.57 75.82 110.40 75.61 105.22 C 74.52 103.64 73.42 102.06 72.26 100.52 C 72.38 98.55 72.87 96.65 73.93 94.97 C 75.41 93.00 74.41 90.55 74.21 88.35 Z" />
<path fill="#f7931b" d=" M 49.93 103.52 C 53.53 102.91 56.13 99.52 59.95 99.98 C 58.55 101.06 57.30 102.31 57.07 104.14 C 56.35 103.95 54.89 103.56 54.16 103.37 C 53.52 103.95 52.22 105.13 51.57 105.72 C 51.03 104.98 50.48 104.25 49.93 103.52 Z" />
<path fill="#f7931b" d=" M 133.09 113.78 C 133.85 108.89 135.08 104.09 136.55 99.37 C 145.31 101.51 154.80 103.04 161.86 109.11 C 166.10 112.52 167.15 119.32 164.52 123.85 L 162.99 123.92 C 161.36 120.53 161.15 116.66 159.95 113.11 C 154.43 113.08 148.92 113.09 143.40 113.09 C 145.26 122.77 147.31 132.41 148.98 142.13 C 148.01 138.49 147.18 134.82 146.57 131.11 C 144.53 130.65 142.50 130.20 140.47 129.72 C 140.42 126.55 141.33 123.04 139.69 120.16 C 138.49 118.16 136.66 116.63 135.52 114.59 C 134.91 114.39 133.70 113.99 133.09 113.78 Z" />
<path fill="#010101" d=" M 247.17 101.82 C 251.09 101.93 255.00 101.99 258.92 101.95 C 260.46 101.95 262.00 102.05 263.55 102.16 C 264.16 105.94 264.30 109.76 264.25 113.59 C 265.23 114.67 266.21 115.76 267.20 116.85 C 270.27 116.73 273.07 119.14 273.62 122.14 C 274.15 123.44 273.20 124.68 272.02 125.16 C 269.77 126.25 267.32 127.01 264.81 127.12 C 264.40 127.43 263.60 128.05 263.19 128.36 C 263.51 128.72 264.14 129.43 264.45 129.79 C 264.91 142.25 264.03 154.70 264.24 167.15 C 264.17 169.72 266.14 171.74 268.51 172.37 C 270.15 173.49 272.07 172.76 273.81 172.32 C 273.77 175.85 273.74 179.38 273.86 182.90 C 271.30 184.83 267.94 183.72 265.00 183.99 C 262.22 183.80 259.67 185.77 256.88 184.85 C 254.19 183.91 251.34 182.79 249.57 180.44 C 247.18 177.24 246.55 173.08 246.93 169.18 C 246.95 160.13 247.82 151.05 246.84 142.02 C 246.45 136.91 247.82 131.80 246.83 126.70 C 245.12 126.78 243.41 126.84 241.71 126.90 C 241.21 130.81 237.86 132.95 234.73 134.72 C 234.73 141.43 234.90 148.15 234.73 154.86 C 234.84 156.90 232.24 156.83 230.91 157.39 C 232.15 157.98 233.81 158.10 234.62 159.33 C 234.99 163.54 234.78 167.79 234.75 172.02 C 235.00 175.64 232.04 178.57 228.98 179.97 C 225.43 181.25 221.55 180.80 217.93 181.85 C 216.09 177.60 214.00 172.09 217.12 167.97 C 217.56 152.90 217.09 137.85 217.24 122.78 C 216.27 122.34 215.29 121.91 214.32 121.48 C 214.35 118.56 213.41 115.75 213.23 112.85 C 215.71 109.45 220.63 109.90 224.38 110.14 C 225.47 111.18 226.59 112.20 227.72 113.21 C 228.40 112.25 229.08 111.29 229.78 110.35 C 229.59 111.37 229.41 112.39 229.22 113.41 C 231.99 115.02 234.22 117.33 236.26 119.76 C 237.09 120.00 237.93 120.25 238.77 120.51 C 237.43 115.73 243.18 113.81 246.88 113.52 C 247.25 109.63 247.38 105.72 247.17 101.82 Z" />
<path fill="#f7931b" d=" M 83.20 106.13 C 86.17 104.58 83.39 109.44 83.20 106.13 Z" />
<path fill="#010101" d=" M 265.63 112.06 C 265.79 110.16 266.87 108.69 268.44 107.70 C 269.15 108.57 269.86 109.45 270.58 110.34 C 269.21 111.62 267.56 112.36 265.63 112.06 Z" />
<path fill="#f7931b" d=" M 89.28 109.10 C 90.94 108.00 91.35 110.60 89.78 110.95 C 88.15 111.98 87.75 109.44 89.28 109.10 Z" />
<path fill="#010101" d=" M 194.43 110.92 C 198.51 110.85 202.60 110.92 206.68 110.77 C 208.48 112.78 211.10 114.34 212.11 116.90 C 212.33 132.93 212.08 148.96 212.22 164.99 C 212.29 170.38 215.14 175.58 213.93 180.99 C 213.63 183.39 214.69 185.70 215.17 188.01 C 213.63 192.26 216.82 196.35 216.94 200.64 C 214.90 201.52 212.81 202.26 210.74 203.07 C 208.37 200.99 207.43 198.01 207.09 194.97 C 202.84 194.88 198.59 194.92 194.34 194.85 C 194.68 192.70 195.11 190.48 194.40 188.36 C 194.61 187.50 194.83 186.64 195.06 185.78 C 194.56 184.90 194.05 184.02 193.55 183.15 C 194.31 179.82 195.38 176.41 194.67 172.97 C 193.73 168.14 195.02 163.30 194.58 158.45 C 195.80 151.10 193.74 143.74 194.50 136.36 C 193.96 132.77 194.59 129.18 194.52 125.59 C 194.42 124.42 194.23 123.27 194.07 122.11 C 194.49 118.40 194.62 114.66 194.43 110.92 Z" />
<path fill="#010101" d=" M 105.27 118.00 C 105.58 116.08 105.90 114.14 106.60 112.32 C 106.97 114.95 107.75 117.52 107.86 120.19 C 109.78 121.06 111.90 121.07 113.97 121.00 C 113.12 120.63 111.41 119.89 110.55 119.52 C 111.17 117.20 111.89 114.91 112.82 112.71 C 114.16 112.88 115.48 113.12 116.79 113.42 C 118.37 115.61 118.55 118.45 118.79 121.05 C 119.09 124.46 116.94 127.51 117.18 130.93 C 116.73 148.42 116.41 165.92 116.23 183.42 C 110.25 185.10 104.12 182.96 98.12 183.92 C 98.10 178.70 98.08 173.49 98.33 168.28 C 100.32 167.13 102.27 165.88 103.91 164.26 C 102.05 164.12 100.19 164.02 98.33 163.95 C 98.55 154.29 98.73 144.64 98.93 134.98 C 99.33 131.31 99.97 127.63 99.52 123.93 C 100.73 121.30 101.91 118.29 105.27 118.00 Z" />
<path fill="#010101" d=" M 123.56 112.67 C 124.95 111.52 126.85 112.16 128.48 112.06 C 129.17 112.38 130.56 113.03 131.26 113.35 C 131.51 113.96 131.77 114.57 132.03 115.19 C 133.14 115.13 134.25 115.10 135.36 115.13 C 136.67 116.92 138.31 118.43 139.69 120.16 C 141.33 123.04 140.42 126.55 140.47 129.72 C 140.23 133.94 140.17 138.16 140.24 142.39 C 138.49 142.78 136.70 143.02 134.90 143.16 C 131.81 142.83 128.69 142.89 125.58 142.96 C 124.26 143.09 123.09 142.72 122.05 141.86 C 122.03 136.78 122.35 131.70 122.28 126.63 C 121.59 125.59 120.65 124.75 119.79 123.87 C 120.16 120.06 119.80 114.93 123.56 112.67 Z" />
<path fill="#010101" d=" M 143.40 113.09 C 148.92 113.09 154.43 113.08 159.95 113.11 C 161.15 116.66 161.36 120.53 162.99 123.92 L 163.34 124.56 C 162.69 131.49 165.36 138.19 165.78 145.07 C 164.69 151.13 162.32 156.90 161.43 163.02 C 160.82 167.57 158.70 171.71 157.57 176.13 C 156.05 174.82 155.81 172.78 155.37 170.95 C 153.17 161.58 151.34 152.14 149.11 142.78 L 148.98 142.13 C 147.31 132.41 145.26 122.77 143.40 113.09 Z" />
<path fill="#010101" d=" M 173.14 114.14 C 177.44 113.98 181.75 113.90 186.06 114.00 C 187.46 113.86 188.61 114.70 189.77 115.36 C 187.74 123.79 185.88 132.27 184.18 140.78 C 183.77 142.71 183.40 144.65 183.06 146.59 L 182.38 146.32 C 181.26 150.31 181.52 154.70 179.43 158.37 C 177.76 161.25 178.47 164.71 177.87 167.86 C 177.57 168.94 177.32 170.04 177.10 171.14 C 176.52 172.57 175.95 174.01 175.33 175.43 C 175.61 178.96 174.45 182.36 173.54 185.73 C 172.41 189.55 171.02 193.53 168.09 196.36 C 166.51 197.31 164.53 197.26 162.77 197.73 C 161.15 198.09 159.47 198.16 157.96 197.37 C 156.38 196.65 154.36 196.42 152.98 197.68 C 151.41 197.37 149.83 197.04 148.25 196.78 C 145.57 194.68 147.17 191.04 146.88 188.15 C 149.92 186.21 153.81 187.58 156.93 185.72 C 160.08 173.16 165.81 161.18 166.82 148.14 C 168.44 136.74 169.65 125.17 173.14 114.14 Z" />
<path fill="#f7931b" d=" M 102.78 119.26 C 104.51 118.69 105.14 119.17 104.69 120.71 C 102.95 121.28 102.32 120.80 102.78 119.26 Z" />
<path fill="#f7931b" d=" M 25.23 120.24 C 25.80 120.75 25.80 120.75 25.23 120.24 Z" />
<path fill="#f7931b" d=" M 249.39 123.20 C 252.21 125.06 254.96 120.20 256.99 123.28 C 254.31 123.69 252.44 125.21 251.80 127.88 C 250.29 128.29 250.48 126.10 249.93 125.30 C 250.49 125.05 251.63 124.57 252.20 124.33 C 251.50 124.05 250.09 123.48 249.39 123.20 Z" />
<path fill="#ffffff" d=" M 140.47 129.72 C 142.50 130.20 144.53 130.65 146.57 131.11 C 147.18 134.82 148.01 138.49 148.98 142.13 L 149.11 142.78 C 149.41 144.59 149.68 146.40 149.93 148.22 C 144.90 146.60 139.76 145.27 134.90 143.16 C 136.70 143.02 138.49 142.78 140.24 142.39 C 140.17 138.16 140.23 133.94 140.47 129.72 Z" />
<path fill="#ffffff" d=" M 112.19 137.12 C 115.24 135.55 112.46 140.35 112.19 137.12 Z" />
<path fill="#010101" d=" M 268.38 137.75 C 269.47 138.70 270.57 139.65 271.70 140.57 C 269.14 141.25 268.35 144.43 266.07 145.04 C 263.80 143.06 267.52 142.12 268.71 141.10 C 266.53 140.46 266.41 139.35 268.38 137.75 Z" />
<path fill="#f7931b" d=" M 222.48 139.09 C 225.39 137.49 222.70 142.42 222.48 139.09 Z" />
<path fill="#f7931b" d=" M 24.26 142.18 C 24.80 142.75 24.80 142.75 24.26 142.18 Z" />
<path fill="#ffffff" d=" M 99.54 143.30 C 101.51 143.30 103.47 143.13 105.44 143.03 C 104.88 146.64 101.54 143.79 99.54 143.30 Z" />
<path fill="#f7931b" d=" M 125.58 142.96 C 128.69 142.89 131.81 142.83 134.90 143.16 C 139.76 145.27 144.90 146.60 149.93 148.22 C 149.68 146.40 149.41 144.59 149.11 142.78 C 151.34 152.14 153.17 161.58 155.37 170.95 C 155.53 171.81 155.85 173.53 156.01 174.39 C 153.25 175.90 150.17 176.62 147.05 176.81 C 137.26 177.44 127.62 175.06 118.31 172.28 C 120.57 162.47 123.04 152.71 125.58 142.96 Z" />
<path fill="#010101" d=" M 75.06 146.09 C 80.05 146.07 85.04 146.05 90.03 146.03 C 91.48 146.07 93.08 145.92 94.26 146.95 C 94.56 152.33 94.76 157.80 94.10 163.17 C 93.00 165.75 94.88 168.47 93.91 171.09 C 92.94 176.05 88.75 179.55 84.46 181.75 C 80.74 183.66 76.09 185.27 72.13 183.05 C 72.68 179.12 72.14 175.12 72.84 171.21 C 73.63 171.13 75.20 170.97 75.99 170.89 C 75.63 166.29 74.30 161.11 76.72 156.90 C 76.23 153.28 75.58 149.70 75.06 146.09 Z" />
<path fill="#f7931b" d=" M 9.49 147.67 C 13.68 149.77 17.78 152.09 21.46 155.00 C 19.20 154.99 16.93 154.89 14.68 154.62 C 13.19 154.43 11.69 154.22 10.20 154.01 C 8.92 152.18 9.66 149.75 9.49 147.67 Z" />
<path fill="#ffffff" d=" M 180.35 159.30 C 182.62 155.61 181.32 150.89 183.86 147.23 C 186.03 150.94 189.32 154.11 190.13 158.49 C 192.01 168.66 188.81 179.45 182.44 187.48 C 178.86 192.15 173.34 194.59 168.05 196.77 C 166.38 197.47 164.56 197.63 162.77 197.73 C 164.53 197.26 166.51 197.31 168.09 196.36 C 171.02 193.53 172.41 189.55 173.54 185.73 C 174.45 182.36 175.61 178.96 175.33 175.43 C 175.95 174.01 176.52 172.57 177.10 171.14 C 179.00 167.46 179.56 163.30 180.35 159.30 Z" />
<path fill="#f7931b" d=" M 79.29 150.00 C 82.17 148.40 79.58 153.36 79.29 150.00 Z" />
<path fill="#ffffff" d=" M 111.17 150.07 C 114.25 148.55 111.43 153.26 111.17 150.07 Z" />
<path fill="#f7931b" d=" M 54.33 152.17 C 55.31 150.60 57.73 152.37 56.65 153.82 C 55.68 155.40 53.24 153.61 54.33 152.17 Z" />
<path fill="#ffffff" d=" M 110.60 152.17 C 111.82 151.30 112.52 151.54 112.71 152.88 C 111.49 153.73 110.79 153.50 110.60 152.17 Z" />
<path fill="#ffffff" d=" M 110.01 154.27 C 110.99 153.33 113.29 154.59 112.62 155.91 C 111.61 156.87 109.09 155.71 110.01 154.27 Z" />
<path fill="#f7931b" d=" M 58.85 157.70 C 59.56 157.13 59.56 154.85 60.76 155.35 C 61.34 156.56 61.43 158.07 62.50 159.02 C 63.39 158.75 65.18 158.23 66.07 157.96 C 66.18 158.81 66.28 159.65 66.38 160.50 C 64.51 160.95 62.50 162.72 60.58 161.57 C 60.32 160.93 59.79 159.66 59.52 159.02 C 58.08 159.68 56.49 160.49 55.73 158.53 C 56.51 158.32 58.07 157.91 58.85 157.70 Z" />
<path fill="#ffffff" d=" M 167.28 157.12 C 170.29 155.52 167.58 160.35 167.28 157.12 Z" />
<path fill="#ffffff" d=" M 170.35 157.30 C 171.17 156.61 173.79 156.25 173.75 157.78 C 172.62 158.46 171.49 158.43 170.36 157.70 L 170.35 157.30 Z" />
<path fill="#f7931b" d=" M 60.19 163.29 C 60.84 163.74 60.84 163.74 60.19 163.29 Z" />
<path fill="#010101" d=" M 214.42 164.22 C 214.97 164.83 214.97 164.83 214.42 164.22 Z" />
<path fill="#ffffff" d=" M 109.24 168.85 C 110.83 168.03 111.70 170.81 110.08 171.26 C 108.51 171.90 107.76 169.41 109.24 168.85 Z" />
<path fill="#ffffff" d=" M 175.31 169.30 C 176.62 169.84 176.56 170.47 175.11 171.19 C 173.79 170.65 173.86 170.02 175.31 169.30 Z" />
<path fill="#f7931b" d=" M 200.12 169.12 C 201.31 168.72 203.88 169.43 203.77 170.94 C 202.54 171.52 200.18 170.53 200.12 169.12 Z" />
<path fill="#f7931b" d=" M 13.81 177.02 C 14.26 174.77 15.82 173.60 18.12 174.08 C 17.88 176.38 15.80 176.95 13.81 177.02 Z" />
<path fill="#ffffff" d=" M 102.32 178.06 C 105.48 176.73 102.29 181.30 102.32 178.06 Z" />
<path fill="#ffffff" d=" M 152.98 197.68 C 154.36 196.42 156.38 196.65 157.96 197.37 C 156.63 198.41 154.40 198.66 152.98 197.68 Z" />
</svg>
